<svg width="40" height="32" viewBox="0 0 40 32" fill="none" xmlns="http://www.w3.org/2000/svg">
<path d="M12.0652 7.10148C8.46998 4.36256 4.59842 3.5269 1.98522 3.30796L0.469981 3.18115C0.458059 3.18006 0.446136 3.18006 0.434214 3.18006C0.299815 3.18006 0.171919 3.24184 0.089545 3.35023C-0.000415722 3.46729 -0.0242608 3.62228 0.025597 3.76101L4.92791 17.3104C5.56089 19.0598 7.23546 20.2347 9.09646 20.2347H12.322C12.5616 20.2347 12.7556 20.0406 12.7556 19.8011C12.7556 18.4864 11.6858 17.4177 10.3722 17.4177H9.09646C8.41904 17.4177 7.80774 16.9896 7.57796 16.3523L3.99471 6.45008C6.3662 6.9595 8.50467 7.93064 10.3592 9.34291C14.7802 12.7105 16.9122 16.6839 16.3594 20.5306C15.7189 24.9939 11.7411 29.0356 7.84676 29.1776C7.76547 29.1809 7.6831 29.182 7.60072 29.182C7.09456 29.182 6.57864 29.1213 6.06272 29.002L7.55087 25.0839C7.78715 24.4606 8.39411 24.0423 9.06069 24.0423H10.28L9.68933 25.5987C9.60479 25.822 9.71643 26.0734 9.94079 26.158C10.2128 26.2609 10.4979 26.3141 10.7873 26.3141C11.7714 26.3141 12.6667 25.6962 13.0157 24.776L13.5793 23.2922C13.7571 22.8229 13.6931 22.2973 13.4092 21.8843C13.1241 21.4713 12.6548 21.2253 12.153 21.2253H9.06177C7.23221 21.2253 5.56739 22.3742 4.91816 24.0845L2.57485 30.255C2.49247 30.4728 2.59652 30.7167 2.81113 30.8077L3.67497 31.1741C4.96693 31.7214 6.29033 32 7.60831 32C7.7232 32 7.83701 31.9978 7.9519 31.9935C13.188 31.8017 18.3158 26.7357 19.1493 20.9305C19.8506 16.0271 17.336 11.1161 12.0652 7.10148Z" fill="#A2A2A2"/>
<path d="M10.5206 3.19306C12.516 3.83146 14.2242 4.92291 15.5964 6.43707C17.4801 8.517 18.1792 10.7996 18.4328 12.3495C18.4675 12.5587 18.6485 12.7126 18.861 12.7126H20.7848C20.9973 12.7126 21.1783 12.5587 21.2129 12.3495C21.4677 10.7996 22.1657 8.51484 24.0494 6.43707C25.4216 4.92291 27.1298 3.83146 29.1252 3.19306C30.3293 2.80829 31.0577 1.63447 30.8561 0.403198L30.8496 0.364178C30.8312 0.250373 30.7683 0.148489 30.6751 0.0812898C30.6014 0.0281805 30.5125 0 30.4215 0C30.3987 0 30.3749 0.00216765 30.351 0.00541924C28.4759 0.312153 24.8927 1.31039 21.9619 4.54464C21.1122 5.48327 20.3946 6.52269 19.8234 7.64558C19.2512 6.52269 18.5347 5.48327 17.6839 4.54464C14.7531 1.31039 11.1699 0.312153 9.29478 0.00541924C9.27094 0.00108378 9.24709 0 9.22433 0C9.01623 0 8.83197 0.150657 8.79729 0.363094L8.79078 0.403198C8.5881 1.63447 9.31646 2.80829 10.5206 3.19306Z" fill="#A2A2A2"/>
<path d="M30.5494 17.4177H29.2737C27.959 17.4177 26.8903 18.4875 26.8903 19.8011C26.8903 20.0406 27.0843 20.2347 27.3238 20.2347H30.5494C32.4093 20.2347 34.085 19.0598 34.718 17.3104L39.6192 3.76101C39.669 3.62228 39.6452 3.46729 39.5552 3.35023C39.4729 3.24293 39.345 3.18006 39.2117 3.18006C39.1997 3.18006 39.1878 3.18006 39.1759 3.18115L37.6607 3.30796C35.0464 3.5269 31.1759 4.36256 27.5807 7.10148C22.3099 11.1161 19.7953 16.0271 20.4987 20.9305C21.3322 26.7346 26.46 31.8006 31.6961 31.9935C31.81 31.9978 31.9248 32 32.0397 32C33.3566 32 34.68 31.7225 35.972 31.1741L36.8369 30.8077C37.0515 30.7167 37.1556 30.4728 37.0732 30.255L34.7299 24.0845C34.0806 22.3742 32.4147 21.2253 30.5863 21.2253H27.4951C26.9933 21.2253 26.5239 21.4713 26.2389 21.8843C25.9538 22.2973 25.891 22.8229 26.0687 23.2922L27.3238 26.5991C27.365 26.7064 27.4463 26.7931 27.5514 26.8408C27.6078 26.8657 27.6685 26.8787 27.7292 26.8787C27.7812 26.8787 27.8333 26.869 27.8831 26.8506C28.4782 26.624 28.9496 26.1797 29.2108 25.5998C29.433 25.1045 29.4807 24.5614 29.3496 24.0434H30.5863C31.2528 24.0434 31.8598 24.4617 32.0961 25.0849L33.5842 29.002C33.0683 29.1213 32.5524 29.182 32.0452 29.182C31.9639 29.182 31.8826 29.1809 31.8002 29.1776C27.9059 29.0346 23.9281 24.9939 23.2875 20.5306C22.7358 16.6839 24.8667 12.7105 29.2878 9.34291C31.1423 7.93064 33.2797 6.9595 35.6523 6.45008L32.069 16.3523C31.837 16.9896 31.2268 17.4177 30.5494 17.4177Z" fill="#A2A2A2"/>
</svg>
