<svg width="120" height="120" viewBox="0 0 120 120" fill="none" xmlns="http://www.w3.org/2000/svg">
<path d="M40.5231 79.3846C33.8769 79.3846 28.0616 76.9846 23.4462 72.3692C18.7385 67.6615 16.4308 61.9384 16.4308 55.3846C16.4308 49.8461 18.2769 44.8615 21.8769 40.6154C25.2923 36.6461 29.4462 33.6923 34.3385 31.8461L35.5385 31.2923V30.6461C36.3692 22.2461 39.0462 15.7846 43.3846 11.5384C47.8154 7.19998 53.4462 5.0769 60 5.0769C66.5539 5.0769 72.0923 7.29229 76.6154 11.5384C80.9539 15.7846 83.6308 22.1538 84.4615 30.6461V31.2C89.5385 33.0461 93.9692 36 97.6616 40.0615C101.631 44.3077 103.662 49.4769 103.662 55.2923C103.662 61.9384 101.262 67.7538 96.6462 72.3692C91.9385 76.9846 86.1231 79.3846 79.4769 79.3846H40.5231Z" stroke="#3F3F3F" stroke-width="4" stroke-miterlimit="10"/>
<path d="M24.4615 115.938H96.0923" stroke="#3F3F3F" stroke-width="4" stroke-miterlimit="10"/>
<path d="M60 116.031V79.3846" stroke="#3F3F3F" stroke-width="4" stroke-miterlimit="10"/>
</svg>
