<svg width="120" height="136" viewBox="0 0 120 136" fill="none" xmlns="http://www.w3.org/2000/svg">
<path d="M28.7077 75.2923L29.8154 72.8923C32.8615 66.4308 36.4615 60.2462 40.2462 54.5231C44.1231 48.7077 48.6462 43.2615 53.6308 38.2769C61.4769 30.4308 69.6 24.5231 77.9077 20.7385C86.2154 16.8615 97.2 14.3692 110.769 13.3538L115.108 12.9846L114.738 17.3231C113.631 30.7077 111.138 41.7846 107.169 50.1846C103.2 58.5846 97.2923 66.8 89.4462 74.5538C84.4615 79.5385 79.0154 84.0615 73.2923 87.9385C67.6615 91.8154 61.5692 95.3231 55.2923 98.3692L52.8923 99.5692L28.7077 75.2923Z" stroke="#3F3F3F" stroke-width="4" stroke-miterlimit="10"/>
<path d="M50.9538 41.2307C47.0769 45.3845 43.5692 49.9076 40.3385 54.523C36.4615 60.2461 32.9538 66.4307 29.9077 72.8922L28.8 75.2922L29.0769 75.5691L4.24615 65.0461L28.4308 41.0461C29.5385 39.9384 30.8308 39.1076 32.3077 38.7384C33.1385 38.4614 34.0615 38.3691 34.8923 38.3691C35.4462 38.3691 36.0923 38.4614 36.6462 38.5538L50.9538 41.2307Z" stroke="#3F3F3F" stroke-width="4" stroke-miterlimit="10"/>
<path d="M89.3539 95.6923C88.9847 97.3538 88.2462 98.7384 87.0462 99.9384L62.9539 123.754L51.877 98.2769L53.077 99.4769L55.3846 98.2769C61.6616 95.2307 67.6616 91.723 73.3846 87.8461C78 84.7076 82.4308 81.1076 86.5846 77.2307L89.6308 91.8153V91.9999C89.7231 93.1999 89.6308 94.3999 89.3539 95.6923Z" stroke="#3F3F3F" stroke-width="4" stroke-miterlimit="10"/>
<path d="M35.6308 103.908C35.6308 107.138 34.5231 110 32.2154 112.308C29.8154 114.523 26.4 116.461 21.8769 118.031C17.3539 119.6 12.2769 120.523 6.73846 120.8C7.1077 115.354 8.03077 110.277 9.6 105.661C11.1692 101.046 13.1077 97.6307 15.4154 95.5076C17.8154 93.0153 20.5846 91.9076 23.8154 91.9999C27.0462 92.0923 29.8154 93.3846 32.2154 95.5076C34.4308 97.8153 35.6308 100.585 35.6308 103.908Z" stroke="#3F3F3F" stroke-width="4" stroke-miterlimit="10"/>
<path d="M86.2462 48.7077C86.2462 52.4462 83.2155 55.4769 79.4769 55.4769C75.7384 55.4769 72.7077 52.4462 72.7077 48.7077C72.7077 44.9692 75.7384 41.9385 79.4769 41.9385C83.2155 41.9385 86.2462 44.9692 86.2462 48.7077Z" stroke="#3F3F3F" stroke-width="4"/>
</svg>
